# xmcd CD database file
#
# Track frame offsets:
#	150
#	27123
#	52060
#
# Disc length: 951 seconds
#
# Revision: 0
# Processed by: cddbd v1.5.1PL0 Copyright (c) Steve Scherf et al.
# Submitted via: CDex 1.50
#
DISCID=1f03b503
DTITLE=yasuko - sun
DYEAR=1900
DGENRE=J-Pop
TTITLE0=So..distant
TTITLE1=Rain
TTITLE2=曖昧
EXTD=
EXTT0=
EXTT1=
EXTT2=
PLAYORDER=
